<?xml version="1.0" encoding="UTF-8" standalone="no"?>
<svg
   xmlns:svg="http://www.w3.org/2000/svg"
   xmlns="http://www.w3.org/2000/svg"
   version="1.1"
   width="400"
   height="400"
   viewBox="0 0 400 400">
  <defs/>
  <g id="puppet">
    <g id="m5">
      <circle
         r="0"
         cx="226"
         cy="332"
         id="pivot_m5"
         style="fill:#000000;fill-opacity:1;stroke:none;stroke-width:0.5;stroke-miterlimit:4;stroke-dasharray:none;stroke-opacity:1" />
      <path
         style="opacity:1;fill:#000000;fill-opacity:1;stroke:none;stroke-opacity:1"
         d="m 265.4,110 c -5.5,0 -10.9,0.9 -16.1,2.8 -47,21.2 -43.9,61.1 -43.4,88.9 2.4,51.4 37.1,79.8 16.7,134.8 11.1,-1.6 20,-4.3 28.8,-12.4 12.5,-10 22.4,-23.7 27.9,-39.2 6.9,-22.3 -0.7,-45.6 -2,-68.1 0.2,-6.4 5.5,6.5 28.9,-5.7 18.6,-10.8 22.5,-28.2 21.2,-46.4 -1.8,-29 -32.5,-54.8 -62,-54.8 z"/>
      <path
         d="m 236.4,315.2 c 7.9,-4.6 16.1,-9 21,-17.5 7.9,-16 11.3,-33.6 8,-51.6 -4,-15.1 -11.1,-30.3 -10.6,-46.5 -1.1,-15 6.9,-30.9 21.5,-36.2 13.4,-5.9 32.5,-1.3 37.6,13.5 2.9,8.2 1.8,17.2 -1.1,25.2 39.2,-41.6 -17.4,-100.4 -59.1,-86.8 -39.6,14.3 -46.5,53.1 -44.4,86.9 -0.1,8.9 2.5,22.4 8.1,34.3 12.3,31.6 18.5,59.7 17.8,79.2 z"
         style="fill:#f87e32;fill-opacity:1" />
      <path
         d="m 252,319.4 c 4.3,-4.3 8.3,-8.4 12,-12.7 6.7,-8.5 11.8,-16.2 14.2,-28.3 2.3,-11.1 1.3,-22.7 0,-33.8 -3.5,-15 -4.2,-29.3 -5.9,-43.7 -0.6,-6.8 -1.5,-15.2 4.9,-19.7 4.9,-3 11.5,-2 16.5,-0.2 -6,0.2 -13.8,-0.5 -17.3,5.7 -3.3,6.5 -1.7,14.1 -1.4,21.1 0.3,6.6 9.6,5.8 14.6,5.6 7,-0.5 13.7,-3.9 19.1,-8.2 4.9,-9.5 7.1,-22.2 0.5,-31.4 -5,-6.4 -12.8,-10.7 -21.1,-9.9 -10.8,0.4 -20.7,6.9 -26.3,16.1 -4.4,6.4 -5.3,15.7 -4.8,24.2 1.3,16.9 10.5,33.6 12.3,49.4 0.7,10.4 -0.8,20.9 -2.9,31 -1.7,6.8 -4.9,13.4 -9.4,18.7 -6.1,6 -13.1,11.4 -20.8,15.4 -5.1,10.9 -8,13.8 0.5,10.8 4.9,-3 12.5,-7.9 15.1,-10 z"
         style="fill:#ffe5c4;fill-opacity:1" />
    </g>
    <path
       style="opacity:1;fill:#000000;fill-opacity:1;stroke:none;stroke-opacity:1"
       d="m 217.3,235 c -2.2,-6.6 -7.7,-26.2 -9.6,-33.2 -8.7,-3.2 -76.2,-1.3 -80.8,2.1 -5.3,21.1 -15.4,43.6 -23.7,63.8 -10.1,24.6 -7.8,54.5 8.7,75.8 10.7,12.9 27.2,20.7 43.4,23.9 7.5,0.7 15,1.2 22.4,-0 60.4,-9.1 66.3,-66.2 39.6,-132.4 z"/>
    <path
       style="fill:#ffe5c4;fill-opacity:1"
       d="m 130.8,205.9 c -5.4,17.3 -23.7,57.5 -29.5,81.5 -2.9,18.8 0.5,39 12.8,54.1 7.1,10.4 18.8,16.9 30.8,20.3 -18.4,-9 -27.4,-29.4 -31.8,-48.2 -4.7,-20.1 6.2,-59.9 14.2,-78.6 -3.9,19.6 -14.4,58.8 -11.4,78.9 3,16.9 11.1,35.1 27.1,43.4 17.6,8.1 40.8,7.1 54.8,-7.3 13.3,-12.4 19.5,-31.3 17.7,-49.2 -1.1,-21 -5.2,-50.6 -9.7,-71.2 9,26.4 16.7,63.9 12.1,91.9 -2.9,17.5 -14.9,33.7 -32.3,39.3 -2.9,1.4 -14.8,3.7 -5.4,2.7 19.6,-2.1 38.3,-14.8 44.9,-33.6 9.8,-26.6 3.3,-55.8 -6.5,-81.6 -4.8,-15.5 -9.6,-30.6 -12.7,-43.1 -9.4,-3.9 -64.6,-2.5 -75,0.8 z"/>
    <g id="m0">
      <circle
         style="fill:#000000;fill-opacity:1;stroke:none;stroke-width:0.5;stroke-miterlimit:4;stroke-dasharray:none;stroke-opacity:1"
         id="pivot_m0"
         cx="165"
         cy="204"
         r="0" />
      <path
         style="opacity:1;fill:#000000;fill-opacity:1;stroke:none;stroke-opacity:1"
         d="M 126.8,0 C 109.4,3.2 105.6,25.1 103.7,40.1 101.5,59.2 96.7,77.3 93.9,96.5 91.4,117.9 80.2,118.7 74.4,133.4 c -6.2,18.8 2.4,40.4 16.4,53.4 42.1,37.9 117.6,30.2 155.5,-3.1 16.4,-17.5 30.7,-44.5 2,-70.6 -6.2,-14.2 -2.1,-34.6 -11.6,-49.3 1.2,-15.9 -1.7,-32.1 -7.6,-46.9 -4.9,-18.1 -33,-23.4 -35.8,-0.8 -2.3,16.6 -18.2,9.1 -36.6,10.8 -19.3,1 -10.3,-27.4 -29.9,-26.7 z"/>
      <path
         style="opacity:1;fill:#ffe5c4;fill-opacity:1"
         d="m 184.2,104.9 c -2.1,13.5 -21,19.4 -29.3,7.7 -5.7,-12.1 -18.7,6.7 -25.3,11.4 -4.3,4.6 -3.3,3.4 -1,-0.8 -11.9,-12.6 -36.4,-13.7 -45.9,2.4 -7,8.1 -9.5,19.2 -6.6,29.5 3.8,22.8 23.9,38.2 44.5,46.5 39.5,16.7 93.7,7.9 125.8,-20.5 12,-13.4 21,-32.7 13,-50.1 -5,-9.9 -14.4,-17.8 -24.8,-21.3 -10.4,-1.4 -20.4,4.3 -27.8,11.1 2.8,2.5 9.4,15.3 2.6,6.3 -6.4,-9 -14.3,-18.3 -25.1,-22 z"/>
      <path
         d="m 130.9,121 c 5.7,-8.1 18.5,-15.4 21,-17.9 10.6,-7.1 23,-5.4 30.5,-2.2 0.4,0.1 1.6,0.6 2.7,1.2 10.7,6.1 16.7,13.2 19,15.6 0.6,0.4 1.1,0.1 2.2,-1 1.4,-1.3 3.7,-3.1 4,-3.1 0.1,0 0.5,-0.2 0.8,-0.5 0.8,-0.7 3.6,-2.3 4.4,-2.6 0.3,-0.1 0.9,-0.4 1.3,-0.6 0.4,-0.3 0.8,-0.5 1,-0.5 0.2,0 0.4,-0.1 0.4,-0.2 0,-0.1 0.7,-0.4 1.7,-0.6 0.9,-0.2 1.9,-0.5 2.1,-0.7 3.4,-1.4 12,-1.6 15.5,-0.4 0.6,0.2 1.2,0.4 1.4,0.4 0.2,0 0.8,0.2 1.3,0.5 0.6,0.3 1.1,0.4 1.2,0.3 0.5,-19.9 -5,-47.5 -21.1,-60.2 -6.3,-5.2 -12.9,-9.1 -19.5,-12.1 -9,-5.4 -35.9,-9.3 -54.5,-3.9 -9,3.6 -14.6,5.9 -20.4,9.7 -12.7,8.5 -19.9,16.7 -24.2,32.6 -2.4,7.3 -4.5,15.7 -5.6,21.8 -0.9,9.7 -1.5,13.1 -0.8,15.1 0.3,0.3 0,0 1.7,-0 13.3,-1.1 22.4,-0.2 31.3,8.6 0.8,0.8 1.6,1.5 1.6,1.5 0.1,0 0.4,-0.3 0.8,-0.8 z"
         style="fill:#f87e32;fill-opacity:1" />
      <circle
         style="fill:#000000;fill-opacity:1;stroke:none;stroke-width:0.5;stroke-miterlimit:4;stroke-dasharray:none;stroke-opacity:1"
         cx="130"
         cy="91.2"
         r="8.1" />
      <circle
         r="8.1"
         cy="91.2"
         cx="209.5"
         style="fill:#000000;fill-opacity:1;stroke:none;stroke-width:0.5;stroke-miterlimit:4;stroke-dasharray:none;stroke-opacity:1" />
      <path
         d="m 127.9,37.8 c 2,-1.3 4.6,-2.3 6.6,-3.2 1.1,-0.5 1.3,-0.8 0.9,-1.6 -0.1,-0.2 -0.6,-1.5 -1,-2.9 -2.1,-6.4 -5.2,-11.6 -7.9,-12.9 -1.2,-0.6 -2.9,-0.2 -3.8,0.4 -4.4,4.6 -6,9.4 -7.1,14.8 -0.9,5.1 -1.8,9.9 -1.7,15.1 4.8,-3.1 9.1,-7 14.1,-9.7 z"
         style="fill:#ffb4b0;fill-opacity:1" />
      <path
         d="m 226.1,46.9 c -0.3,-6.5 -1.4,-13 -3.7,-19.1 -1.3,-3.5 -2.6,-7.3 -5.4,-9.9 -1.4,-1.3 -3.4,-2 -5.2,-1.4 -2.2,1.3 -3.4,3.8 -4.5,6 -1.6,3.5 -2.9,7.1 -3.3,10.9 -0.3,1.8 1.9,1.8 2.9,2.6 2.5,1.2 5,2.4 7.3,3.9 3.7,2.2 7.1,4.9 10.3,7.9 0.5,0.8 1.7,1.6 1.6,0 0,-0.3 0.1,-0.6 0.1,-0.9 z"
         style="fill:#ffb4b0;fill-opacity:1" />
      <path
         d="m 112.1,49.6 c 0.6,-0.6 0.6,-0.7 0.5,-3.7 -0.1,-1.7 -0,-4.2 0.1,-5.7 0.2,-3.2 1,-9.4 1.2,-9.5 1.5,-5.5 4.4,-12.7 9.4,-15.6 3.3,-1.1 5.9,0.5 8.2,4.2 1,1.7 2.4,4.5 3,6.6 0.9,2.8 1.8,5.2 2.5,7.7 0,0 1,-0.4 2.2,-0.8 1.2,-0.5 2.5,-0.9 3,-1 0.5,-0.1 1.3,-0.3 1.7,-0.5 0.8,-0.3 0.9,-0.4 0.7,-1.2 -1.1,-9.6 -4.7,-19.8 -12.2,-25.7 -6.5,-4.1 -9.8,-0.5 -14.2,4.3 -5.7,6.3 -9,15.3 -10.6,24.7 -0.1,0.5 -0.2,1.4 -0.4,2 -0.8,3.9 -2.2,20.6 -1.8,21.7 2.1,-1.8 4.8,-5.1 6.7,-7.4 z"
         style="fill:#f87e32;fill-opacity:1" />
      <path
         d="m 235.1,55.9 c -0.1,-2.2 -0.3,-4.8 -0.4,-5.7 -0.6,-13.2 -5.2,-27.3 -10.8,-37.6 -1.3,-1.9 -1.7,-2.5 -4.2,-5 -9.1,-7 -17.3,-4.4 -21.7,5.9 -1.9,4.9 -4.3,12 -5.3,16.9 2.7,1 6.5,2.5 9,3.4 2.7,-7.8 5.2,-22.3 14.5,-18.6 4.6,2.1 9.1,15.6 10.4,23.4 0.4,3.6 1,9.3 0.5,11.7 -0.2,0.4 -0.1,0.6 0.8,1.5 2.1,2.8 3.5,4.4 5.4,7 1.6,2.4 1.7,2.1 1.5,-2.7 z"
         style="fill:#f87e32;fill-opacity:1" />
      <path
         d="m 196.5,75.6 c 6.4,-6 19.5,-6 25.1,-0.1 -0.2,-7.3e-4 -0.8,-0.2 -1.1,-0.4 -4.2,-2.4 -8.3,-2.5 -11.7,-2.6 -3.6,-0.3 -12.5,3.6 -12.3,3.1 z"
         style="fill:#000000" />
      <path
         d="m 126.1,72 c 2.4,-0.6 6.9,-0.7 8.7,-0.3 3.3,0.9 6.9,2.5 8,3.6 -2.9,-0.7 -8.5,-2 -12.3,-2.1 -4.7,0.1 -8.9,1.4 -12.7,3 l -1,0.4 c 2.6,-2.2 6.6,-4 9.3,-4.7 z"
         style="fill:#000000" />
      <path
         d="m 166.1,190.2 c -4.6,-1 -8.9,-3.2 -12.3,-6.5 -8.6,-8.2 -10.3,-17.4 -13.3,-27.8 -1,-3.8 -2.5,-7.7 -5.9,-9.7 -3.7,-2.5 -5.8,-7.7 -3.6,-11.8 0.6,-1.6 4.1,-5.7 4.7,-4.4 -1.4,3 -2.6,6.3 -2.2,9.6 0.9,4.9 6.3,7.6 10.9,7.7 8.7,0.5 15,-2.6 20.2,-8.7 1.2,-2.4 2.9,-8.4 5.1,-4.4 1.6,3.1 3.8,6 6.6,8.1 4,2.7 9.2,4.5 14.2,4.1 2.9,-0.1 5.8,-1.3 8.4,-2.6 2.4,-1.4 5.1,-3.3 5.7,-6.3 0.3,-3.1 -1.4,-5.8 -2.9,-8.3 2.4,0.1 5,3.9 5,8.2 0.3,3 -1.3,5.8 -3.8,7.3 -3.7,2.4 -5.2,6.7 -5.5,10.9 -0.6,3.9 -1.5,7.7 -2.6,11.4 -1.2,3 -2.1,6.1 -3.9,8.8 -2.9,5.4 -7.2,10.2 -12.7,13 -3.8,1.6 -8,2 -12.1,1.4 z"
         style="fill:#000000"/>
      <path
         d="m 182.2,163 c 2.7,-2.8 2.9,-7.5 3,-10.9 0,-0.6 0,-1.3 0,-1.9 -4,-1.6 -9.1,-3.9 -13.2,-5.8 -0.6,-0.1 -2.1,-1.4 -1.9,-0.1 -0.1,3.7 0.1,7.5 0.2,11.2 0.1,3.1 0.1,6.3 0.4,9.4 3.9,0.8 9.6,0.2 11.5,-1.9 z"
         style="fill:#ffffff;fill-opacity:1"/>
      <path
         d="m 168,162.6 c -0.1,-6.1 -0.2,-12.2 -0.4,-18.4 -0,-1.4 -1.5,-0.1 -2.1,0.2 -2.1,1 -4,2.3 -6.1,3.3 -1.7,0.9 -3.4,1.9 -5.2,2.8 -1,0.4 -0.6,1.6 -0.6,2.4 0.3,2.8 0.5,5.8 1.9,8.3 3,3.5 8.9,4.3 12.6,4.2 -0,-1 -0,-2 -0,-2.9 z"
         style="fill:#ffffff;fill-opacity:1"/>
      <path
         d="m 155.2,175.5 c 3.8,-2 8.1,-3.2 12.4,-3.5 2.7,-0.1 5.5,0.1 8.2,0.6 1.9,0.5 3.8,1.1 5.7,1.6 1.9,0.7 3.7,1.4 5.5,2.3 4.5,-7.2 8.4,-18.9 9.1,-27.1 -2.2,0.2 -3.7,0.3 -5.5,0.4 -2.8,0.2 -3.5,9.3 -3.9,11.5 -0.6,1.9 -1.7,3.5 -3.3,4.7 -2.5,1.9 -5.7,1.4 -8.6,2 -4.8,0.3 -9.7,0.4 -14.5,-0.3 -2,-0.6 -4,-1.5 -5.5,-3.1 -3.3,-3 -3.1,-10.5 -5.1,-12.8 -1.6,-1.5 -4.1,-0.7 -6.1,-0.9 -1.8,0.1 1.5,12.1 3.1,15.2 1.5,3.7 3.2,8.1 5.7,10.8 0.9,-0.5 1.9,-1 2.8,-1.5 z"
         style="fill:#a90e27;fill-opacity:1"/>
      <path
         style="fill:#fe5349;fill-opacity:1"
         d="m 174,187.2 c 3.2,-1.1 12,-6.4 10.7,-9.8 -1.4,-1.4 -3.4,-1.6 -5.1,-2.5 -6.3,-2 -13.3,-2 -19.6,-0.1 -2,0.6 -3.8,1.6 -5.4,2.9 -0.9,1.1 -0.1,2.7 1,3.5 2.2,2 4.4,4.1 7.2,5.2 3.5,1.4 7.5,1.5 11.2,0.8 z"/>
      <path
         d="m 167.3,202.8 c -3.5,-0.7 -6.1,-1.5 -8.9,-3.5 -1.5,-1 -2.7,-2.3 -3.8,-3.7 -0.6,-0.5 -0.4,-1.4 0.4,-0.7 2.6,1.7 5.3,3.2 8.2,4.1 3.8,1 7.9,1.9 11.8,0.9 3.5,-0.7 7,-2 9.9,-4.1 2.6,-0.5 -1.9,2.7 -2.4,3.2 -4.2,3.1 -7.3,3.4 -11.8,3.9 -1.1,0 -2.3,0.2 -3.4,-0 z"
         style="fill:#000000"/>
    </g>
    <g id="m6">
      <circle
         style="fill:#000000;fill-opacity:1;stroke:none;stroke-width:0.5;stroke-miterlimit:4;stroke-dasharray:none;stroke-opacity:1"
         id="pivot_m6"
         cx="119"
         cy="317"
         r="0" />
      <path
         style="fill:#000000;fill-opacity:1"
         d="m 125.1,308.4 c -6.8,-0.1 -17.8,3.3 -23.9,8.9 -7.7,6.8 -11.4,17.2 -12.3,28.4 -0.9,26.6 31.1,41.4 51.4,40.9 4.4,-23.7 -3.5,-73.9 -10.2,-76.8 -1,-0.9 -2.8,-1.4 -5,-1.4 z"/>
      <path
         style="fill:#f87e32;fill-opacity:1"
         d="m 110.4,314.9 c -4.3,1.7 -8.1,4.4 -10.7,8.2 -4.8,6.5 -8.2,14.3 -8,22.5 -0.1,4.9 0.7,9.8 3.3,14 8.2,14.7 28.7,23.6 43,24.4 3,-22.6 -2.1,-65.6 -11,-71.8 -5.8,-0.4 -12.1,0.7 -16.5,2.7 z"/>
      <g id="m7">
        <circle
           r="0"
           cx="120"
           cy="378"
           id="pivot_m7"
           style="fill:#000000;fill-opacity:1;stroke:none;stroke-width:0.5;stroke-miterlimit:4;stroke-dasharray:none;stroke-opacity:1" />
        <path
           style="fill:#000000;fill-opacity:1"
           d="m 140.6,385.1 c -8.8,-12.4 -34.6,-20.1 -44.9,-19.6 -7,0.7 -10.1,5.5 -13.1,10.9 -2.4,5.7 4.2,13.5 8.5,17.2 4.2,2.9 8.5,5.1 13.2,6.2 0.6,0.1 1.2,0.1 1.9,0.1 6.1,0.4 12,-1.2 17.9,-2.1 4.4,-1 9.1,-1.5 13.2,-3.3 1.5,-2.3 2.5,-5.5 3.2,-9.4 z"/>
        <path
           style="fill:#f87e32;fill-opacity:1"
           d="m 138,384.6 c -8.3,-8.5 -28.1,-16.9 -39.2,-15.3 -2.9,0 -5.9,1.5 -8.5,2.8 -1.7,0.4 -5,6.1 -1.5,3.8 2.4,-1.8 5.9,-3.9 8.8,-2.2 0.9,2.8 -4.3,3 -6.1,4.4 -3.2,1.3 -6.5,4.2 -4.3,7.9 1.6,3.7 5.8,0.8 7.6,-1.3 2.8,-2.7 7.5,-3.6 10.8,-1.1 -0.4,2.9 -5.7,2.2 -7.9,3.7 -3.6,0.2 -4.4,4.1 -1.2,5.5 6.2,4.3 14.1,4.8 21.4,4.2 5.1,-0.3 13.6,-2.9 18.5,-4.1 0.7,-2.2 1.3,-5 1.7,-8.1 z"/>
      </g>
    </g>
    <g id="m8">
      <circle
         style="fill:#000000;fill-opacity:1;stroke:none;stroke-width:0.5;stroke-miterlimit:4;stroke-dasharray:none;stroke-opacity:1"
         id="pivot_m8"
         cx="204"
         cy="314"
         r="0" />
      <path
         style="fill:#000000;fill-opacity:1"
         d="m 212.6,305.5 c -2.9,-0.1 -5.8,0.3 -8.6,1.1 -20,7.4 -4.6,52.5 2.3,76.5 11.8,-0.4 31.1,-12.3 37.8,-25.4 3,-5.2 3.6,-10.8 3.9,-17.2 -0.1,-7.4 -1.3,-14.7 -5.8,-20.5 -3.7,-5.4 -8.9,-8.7 -15.2,-11.5 -4.5,-1.8 -9.5,-2.8 -14.3,-2.9 z"/>
      <path
         style="fill:#f87e32;fill-opacity:1"
         d="m 216.2,308.7 c -30.9,-1.8 -15.6,48.2 -7.7,71.2 11.4,-3.2 20.8,-9.1 27.8,-17.5 2.4,-3.4 4.8,-7 6.1,-10.9 2.3,-5.8 2.7,-12.2 2,-18.3 -1.1,-7.8 -6.4,-14.4 -12.7,-18.7 -4.7,-2.9 -10,-5.1 -15.5,-5.8 z"/>
      <g id="m9">
        <circle
           r="0"
           cx="212"
           cy="372"
           id="pivot_m9"
           style="fill:#000000;fill-opacity:1;stroke:none;stroke-width:0.5;stroke-miterlimit:4;stroke-dasharray:none;stroke-opacity:1" />
        <path
           style="fill:#000000;fill-opacity:1"
           d="m 244,357.8 c -16.5,1 -30.5,7.7 -39,21.4 1.1,4 2.5,9 3,11.7 1.7,5.1 3.4,3.4 6,3.8 1.1,0 2.2,0.1 3.3,0.1 6.8,-0.1 13.6,0.4 20.3,-0.6 4.5,-0.6 8.8,-2.8 11.8,-6.3 2.2,-2.9 4.6,-5.8 5.8,-9.3 1.8,-3 2.2,-6.6 1.3,-9.9 -0.5,-3.7 -1.2,-8.7 -5.5,-9.7 -1.8,-1.5 -2.5,-1.2 -7,-1.1 z"/>
        <path
           d="m 208.4,379.9 c 1.2,3.4 2.2,6.3 2.9,8.3 7.7,2.8 16.2,2.6 23.7,2.3 3.8,-0.1 7.9,-0.5 11.1,-2.7 2.4,-2 5.8,-5.5 3.7,-8.7 -3.6,-1.9 -7.8,-1.9 -11.8,-2.4 -4.6,-0.2 1.7,-1.9 3.2,-1.4 3.8,-0.2 7.3,1.3 10.8,2.3 3.1,-1.2 3.1,-6.6 1.4,-8.3 -2.1,-1.6 -5,-2.3 -7.5,-3 -1.6,-0.1 -6.8,-1.2 -2.4,-1.8 3.6,0.4 7.1,1.1 10.3,2.8 3,2.5 0.7,-2.5 0.1,-3.7 -2.7,-1.7 -5.7,-3.5 -8.9,-3 -15.2,-0.4 -29.1,10.7 -36.6,19.4 z"
           style="fill:#f87e32;fill-opacity:1" />
      </g>
    </g>
    <g id="m1">
      <circle
         style="fill:#000000;fill-opacity:1;stroke:none;stroke-width:0.5;stroke-miterlimit:4;stroke-dasharray:none;stroke-opacity:1"
         id="pivot_m1"
         cx="124"
         cy="218"
         r="0" />
      <path
         style="opacity:1;fill:#000000;fill-opacity:1"
         d="m 125,211.2 c -0.7,0.1 -1.3,0.4 -2,1.1 -4.1,4.8 -7.2,10.5 -9.8,16.3 -2.7,8.6 -2.1,17.2 -3.4,26 -1.3,6.1 -2.5,12.1 -4.1,18 6,9 13.4,9.6 23.2,6.7 0.6,-1.7 1.8,-4.7 2.3,-6.4 4,-12.2 7.1,-25.4 6.3,-38.3 -0.6,-6.5 -0.4,-10.1 -4.8,-16.8 -1.8,-2 -4.8,-6.9 -7.7,-6.6 z"/>
      <path
         style="opacity:1;fill:#f87e32;fill-opacity:1"
         d="m 124.6,214.1 c -0.8,0.3 -1.6,1.1 -2.6,2.6 -3.9,6.7 -7.3,14 -8.5,21.7 -0.7,7.1 -0.5,13.8 -2.5,20.5 -1,4.2 -2,9.1 -3.1,13.2 5.1,6.9 11.6,7.8 20.2,5.1 3.9,-10.7 7,-22.5 7.4,-33.9 0,-9.6 0.1,-20.2 -6.7,-26.9 -1.7,-1.7 -3,-2.8 -4.3,-2.3 z"/>
      <g id="m2">
        <circle
           style="fill:#000000;fill-opacity:1;stroke:none;stroke-width:0.5;stroke-miterlimit:4;stroke-dasharray:none;stroke-opacity:1"
           id="pivot_m2"
           cx="117"
           cy="272"
           r="0" />
        <path
           style="opacity:1;fill:#000000;fill-opacity:1"
           d="m 130.5,270.7 c -3.8,-6.6 -19.1,-5.8 -24.5,0.3 -0,7.5 -0.6,17.5 -2.7,25.7 -2.6,10.7 -10.1,19.2 -13.6,29.5 -0.7,2.7 -3.2,11 2.1,8.7 5.7,-5 -0.2,6.3 3.8,7.9 2.2,2.7 5,-3.3 5,-0.9 0.5,4.3 7.4,4.1 9.2,-0.1 5.8,-15.1 12.8,-29.7 16.4,-45.6 1.6,-7.6 3.5,-17.5 4,-25.4 z"/>
        <path
           style="opacity:1;fill:#f87e32;fill-opacity:1"
           d="m 129.1,271.2 c -2.3,-4.4 -17.5,-5 -21,0.3 0,2.4 -0.1,5 -0.2,7.4 -0.3,9.3 -2,21.3 -6.4,28.5 -2.4,3.7 -4.6,7.5 -6.6,11.5 -2.2,4.3 -3.7,9.3 -4.5,14.1 1.9,3.1 2.6,-4.8 4.1,-5.2 5.4,2.2 0.2,9.3 1.5,13.6 1.3,3.1 6.3,-6.2 6.8,0.2 2.2,6.2 5.8,-2.6 6.7,-5.3 3.4,-6.8 6.2,-14 9,-21 3.7,-10.5 7.2,-21.4 8.8,-32.6 0.6,-4.1 1.4,-7.9 1.8,-11.5 z"/>
      </g>
    </g>
    <g id="m3">
      <circle
         style="fill:#000000;fill-opacity:1;stroke:none;stroke-width:0.5;stroke-miterlimit:4;stroke-dasharray:none;stroke-opacity:1"
         id="pivot_m3"
         cx="206"
         cy="218"
         r="0" />
      <path
         style="fill:#000000;fill-opacity:1"
         d="m 210.1,210 c -0.3,-0.1 -0.6,-0.1 -1,-0.1 -13.1,2.5 -14.1,22.3 -13.5,32.6 0.3,4.1 -0.1,4.9 1.1,11.1 1.8,6.9 4.6,14.4 6.3,20.2 10.3,2.4 17.3,-1.1 22.3,-5.7 -1.2,-5.3 -2.5,-11.7 -3.3,-17 -0.5,-10.3 -0.3,-20.5 -3.9,-30.1 -2.3,-3.6 -3.5,-9.9 -8.1,-10.9 z"/>
      <path
         style="fill:#f87e32;fill-opacity:1"
         d="m 211.3,213.2 c -4.4,-0.5 -7.9,3.2 -10.1,6.8 -4.1,8.5 -5,21.3 -3.1,29.6 1.8,8.1 4.3,15.3 6.5,22.1 6.1,1.8 14.9,0.6 18.8,-5.3 -0.3,-1.2 -0.6,-2.3 -0.8,-3.5 -3.5,-11.3 -1.7,-23.5 -4.1,-34 -1.3,-5.7 -3,-11.2 -7,-15.8 z"/>
      <g id="m4">
        <circle
           style="fill:#000000;fill-opacity:1;stroke:none;stroke-width:0.5;stroke-miterlimit:4;stroke-dasharray:none;stroke-opacity:1"
           id="pivot_m4"
           cx="212"
           cy="268"
           r="0" />
        <path
           style="fill:#000000;fill-opacity:1"
           d="m 224.9,265.8 c -9.4,-5.2 -17,-4.6 -23.2,2.1 0.7,8.1 3.2,18.4 5.3,26.2 4.4,13.3 10.3,26.1 15.8,38.9 1.8,3.2 3.1,8 7.7,7.7 4.1,1.7 1.5,-4.7 4,-3.5 5.1,4 5.9,-3.5 4.6,-7 -1.3,-5.9 3.6,2.3 5.3,-0.4 1.3,-2.6 -0.2,-5.9 -0.9,-8.5 -3.5,-8.7 -8.2,-16.5 -13.3,-24.4 -2,-5.4 -3.5,-10.9 -4.4,-16.6 -0.4,-4 -0.8,-10.6 -1.1,-14.6 z"/>
        <path
           style="fill:#f87e32;fill-opacity:1"
           d="m 223.3,267.4 c -7.4,-4.9 -14.9,-4.2 -19.5,1.5 0.3,2.3 0.6,4.6 0.9,7 4,22.3 13.3,40.6 20.3,55.6 0.7,3.2 5.9,9.7 6.5,2.9 1.3,-2.5 8.3,5.1 6.8,-0.6 0.1,-3.4 -3.3,-8.3 1.2,-10.1 0.2,3.3 5.4,7.9 3.7,2.6 l -0.2,-0.8 c -1.3,-4.7 -3.2,-9.3 -5.7,-13.4 -1.9,-3.4 -4.4,-6.6 -6.5,-10 -5.9,-10.6 -6.9,-22.8 -7.5,-34.7 z"/>
      </g>
    </g>
  </g>
</svg>
